Coordinates
version=1
nRows=29
nColumns=24
inDegrees=yes

Units are S.I. units (second, meters, Newtons, ...)
Angles are in degrees.

endheader
time	pelvis_tilt	pelvis_list	pelvis_rotation	pelvis_tx	pelvis_ty	pelvis_tz	hip_flexion_r	hip_adduction_r	hip_rotation_r	knee_angle_r	ankle_angle_r	subtalar_angle_r	mtp_angle_r	hip_flexion_l	hip_adduction_l	hip_rotation_l	knee_angle_l	ankle_angle_l	subtalar_angle_l	mtp_angle_l	lumbar_extension	lumbar_bending	lumbar_rotation
      0.96883333	     -4.13652409	     -3.99959620	      1.44546781	     -0.30519417	      0.99456888	      0.30284197	     11.70302431	      9.30026238	     -3.34226238	    -13.80405720	      4.96820616	    -10.59018049	      3.74477805	     25.14186538	     -4.32422988	      0.46733987	    -73.32597394	     -6.41483155	    -11.02163690	      0.97899284	      2.20075829	      6.63984355	      4.60652505
      0.97300000	     -4.13312996	     -3.94571660	      1.25194672	     -0.30046541	      0.99486748	      0.30320700	     11.24793160	      9.28377947	     -3.25620630	    -13.55041271	      5.05163780	    -10.36431727	      3.75680222	     25.75149191	     -4.31545221	      0.34841580	    -73.19747743	     -5.86240885	    -11.24249821	      0.95721394	      2.13174995	      6.58331078	      4.75456400
      0.97716667	     -4.07836535	     -3.87712262	      1.06189976	     -0.29572694	      0.99523280	      0.30354734	     10.73063068	      9.24576447	     -3.17944973	    -13.28172448	      5.13792431	    -10.04552306	      3.77452946	     26.28353970	     -4.29057459	      0.23020081	    -73.00975754	     -5.29938337	    -11.38338194	      0.92588569	      1.99509814	      6.51333627	      4.99046115
      0.98133333	     -4.05774078	     -3.79506234	      0.88948329	     -0.29098302	      0.99553697	      0.30383384	     10.25700535	      9.17753060	     -3.16265010	    -13.02399351	      5.25095859	     -9.62556862	      3.80704093	     26.83862324	     -4.23338081	      0.14216060	    -72.76646576	     -4.76146781	    -11.44635784	      0.86128651	      1.91064486	      6.42919964	      5.31322803
      0.98550000	     -4.04187240	     -3.72395463	      0.68703055	     -0.28628442	      0.99578846	      0.30417950	      9.80339773	      9.12923308	     -3.08780151	    -12.79326369	      5.33793315	     -9.32889126	      3.83099269	     27.38999134	     -4.20922563	      0.02118351	    -72.49382294	     -4.20357067	    -11.55267014	      0.82524206	      1.81132400	      6.35131942	      5.46342602
      0.98966667	     -4.01886200	     -3.66153097	      0.50829288	     -0.28156540	      0.99602095	      0.30447244	      9.33443437	      9.07884520	     -3.05462378	    -12.54239219	      5.43491926	     -8.92812996	      3.86679101	     27.92350462	     -4.18165516	     -0.06504830	    -72.17922063	     -3.64056901	    -11.53132446	      0.77417441	      1.71213974	      6.28403434	      5.71479144
      0.99383333	     -3.99098047	     -3.59252783	      0.32799412	     -0.27683366	      0.99624771	      0.30474834	      8.86308430	      9.01655443	     -3.03291879	    -12.29794601	      5.53693759	     -8.53188769	      3.91151302	     28.43097415	     -4.14559361	     -0.15225258	    -71.80964438	     -3.09649331	    -11.49380657	      0.71355962	      1.61905455	      6.22250445	      5.94756259
      0.99800000	     -4.00587383	     -3.52920102	      0.13887434	     -0.27214015	      0.99636964	      0.30503175	      8.45138860	      8.95951644	     -2.99296969	    -12.07522140	      5.63291140	     -8.15966477	      3.95961275	     28.97829541	     -4.11789373	     -0.23829841	    -71.40943904	     -2.55135298	    -11.43149509	      0.65538193	      1.56244577	      6.16249142	      6.14902105
      1.00216667	     -3.98428595	     -3.46962957	     -0.06819869	     -0.26743852	      0.99653133	      0.30532703	      7.99816148	      8.90664740	     -2.93129575	    -11.84762771	      5.71284378	     -7.81869160	      4.00318250	     29.46270983	     -4.10605626	     -0.34286369	    -70.95813604	     -2.00578960	    -11.34409162	      0.61036777	      1.46611626	      6.12478958	      6.32407206
      1.00633333	     -3.96948932	     -3.41154861	     -0.24346599	     -0.26273600	      0.99664229	      0.30558042	      7.55529411	      8.84675400	     -2.91999442	    -11.61991927	      5.81111286	     -7.41218424	      4.06906360	     29.94947328	     -4.07918408	     -0.40972966	    -70.47092121	     -1.48665651	    -11.19338603	      0.54055566	      1.36859567	      6.04702289	      6.56122403
      1.01050000	     -3.96041581	     -3.35129667	     -0.43369986	     -0.25803060	      0.99673404	      0.30584946	      7.11794995	      8.78723556	     -2.86395733	    -11.39178151	      5.89453426	     -7.05960640	      4.13151836	     30.42109130	     -4.05885027	     -0.49335398	    -69.93505408	     -0.98637298	    -11.04133727	      0.48076841	      1.28561385	      5.98930939	      6.74026608
      1.01466667	     -3.97734923	     -3.29457122	     -0.62386617	     -0.25333329	      0.99674514	      0.30610598	      6.71806306	      8.72851524	     -2.81213485	    -11.18064608	      5.98338346	     -6.70421393	      4.20060701	     30.90942089	     -4.03949603	     -0.56747278	    -69.36319957	     -0.50299046	    -10.85859700	      0.41817316	      1.23008004	      5.93686193	      6.93106289
      1.01883333	     -3.96075837	     -3.24432234	     -0.81506190	     -0.24863193	      0.99678413	      0.30636280	      6.27599254	      8.67681632	     -2.74142913	    -10.95526218	      6.06677819	     -6.38636366	      4.26518769	     31.34365427	     -4.03097907	     -0.64421993	    -68.74728930	     -0.04825501	    -10.66261471	      0.36388349	      1.13519678	      5.88739329	      7.10129417
      1.02300000	     -3.98041828	     -3.20254938	     -1.00322344	     -0.24394052	      0.99672732	      0.30660973	      5.88141513	      8.63308440	     -2.66972658	    -10.74387566	      6.15105751	     -6.07190039	      4.33581901	     31.80767035	     -4.02779712	     -0.70658501	    -68.10076621	      0.38358039	    -10.44041716	      0.30669555	      1.07974058	      5.85177650	      7.28461134
      1.02716667	     -3.98005739	     -3.14499195	     -1.18925803	     -0.23924001	      0.99669697	      0.30683575	      5.46634581	      8.56891571	     -2.58712701	    -10.53455931	      6.23377704	     -5.75270231	      4.42277389	     32.22486168	     -4.00258254	     -0.76806502	    -67.39732978	      0.78211093	    -10.23203958	      0.23512184	      0.99398780	      5.79640419	      7.46972582
      1.03133333	     -4.01154330	     -3.10682156	     -1.39421412	     -0.23454995	      0.99657366	      0.30710100	      5.08924477	      8.53164984	     -2.45501863	    -10.33341300	      6.31427613	     -5.52914793	      4.46786203	     32.66523030	     -4.01610642	     -0.84665214	    -66.66658977	      1.14145646	    -10.01347664	      0.20653607	      0.95624467	      5.76813046	      7.57932903
      1.03550000	     -4.01542064	     -3.06256084	     -1.57663834	     -0.22982868	      0.99647900	      0.30732962	      4.67515119	      8.48330216	     -2.34172336	    -10.11820929	      6.40084939	     -5.29590791	      4.51286468	     33.05476308	     -4.00942213	     -0.90316259	    -65.88781725	      1.48262131	     -9.76347353	      0.17915972	      0.88668058	      5.72431307	      7.73386798
      1.03966667	     -4.01213249	     -3.02029783	     -1.74230092	     -0.22510309	      0.99635109	      0.30751314	      4.26288414	      8.42740056	     -2.29154262	     -9.91602713	      6.49545827	     -4.96650467	      4.64745708	     33.42348088	     -3.99403430	     -0.94580614	    -65.07266141	      1.78917162	     -9.54904175	      0.07442586	      0.81122930	      5.67947973	      8.00644122
      1.04383333	     -4.04158521	     -2.97911864	     -1.92504082	     -0.22039526	      0.99615407	      0.30773676	      3.88905757	      8.38274624	     -2.14560555	     -9.72416680	      6.59518519	     -4.80567719	      4.68629187	     33.80812182	     -3.99237089	     -0.99801733	    -64.21689012	      2.05388485	     -9.29321047	      0.05479245	      0.77133841	      5.64286762	      8.07915778
      1.04800000	     -4.05339859	     -2.96748536	     -2.07971953	     -0.21566514	      0.99592422	      0.30792697	      3.48658715	      8.36705627	     -2.03186992	     -9.51148737	      6.69602731	     -4.62282740	      4.74406932	     34.16746300	     -4.00848863	     -1.01757228	    -63.34313626	      2.32965623	     -9.00853335	      0.02302506	      0.71398173	      5.63129944	      8.26050946
      1.05216667	     -4.08936704	     -2.91653633	     -2.25776986	     -0.21093791	      0.99567309	      0.30812519	      3.12701058	      8.30755955	     -1.88158873	     -9.33358009	      6.79998824	     -4.47671336	      4.77818494	     34.51662785	     -3.99359710	     -1.06984354	    -62.39950512	      2.53582720	     -8.79064091	      0.00841377	      0.68638765	      5.58466597	      8.36432119
      1.05633333	     -4.11355309	     -2.88912827	     -2.41329169	     -0.20619589	      0.99538188	      0.30829677	      2.74818987	      8.27212752	     -1.74549442	     -9.14219007	      6.91893405	     -4.33386738	      4.81095732	     34.84460847	     -3.99483815	     -1.10039813	    -61.43570707	      2.74453479	     -8.53920605	     -0.00240363	      0.64024820	      5.55570440	      8.49868711
      1.06050000	     -4.13619138	     -2.86010766	     -2.56278538	     -0.20144308	      0.99508321	      0.30845612	      2.37276763	      8.23315836	     -1.60813630	     -8.96158050	      7.04104558	     -4.21451418	      4.84118916	     35.14582661	     -3.98863910	     -1.12076417	    -60.42166920	      2.92561506	     -8.30158656	     -0.01070060	      0.60881400	      5.52796325	      8.63809062
      1.06466667	     -4.14827886	     -2.83305081	     -2.70394414	     -0.19667221	      0.99477155	      0.30860005	      1.98430004	      8.19429098	     -1.47080968	     -8.77810553	      7.17088445	     -4.11305751	      4.87003492	     35.41561378	     -3.98207183	     -1.13986854	    -59.37041142	      3.09120871	     -8.06402426	     -0.01595291	      0.55958019	      5.50090497	      8.77647262
      1.06883333	     -4.17851377	     -2.81145271	     -2.83608245	     -0.19190210	      0.99438758	      0.30872465	      1.62176415	      8.16100043	     -1.33343756	     -8.60804194	      7.31281825	     -4.03426564	      4.89486601	     35.68984156	     -3.97517226	     -1.14706368	    -58.28690801	      3.23739613	     -7.84178076	     -0.01742540	      0.53403746	      5.47824054	      8.89847852
      1.07300000	     -4.20952841	     -2.78828439	     -2.96319671	     -0.18711172	      0.99398399	      0.30884187	      1.26040722	      8.12492066	     -1.19053198	     -8.44010059	      7.46119910	     -3.97213912	      4.91543778	     35.94103826	     -3.96646322	     -1.15543886	    -57.16175984	      3.36843058	     -7.62472630	     -0.01515749	      0.50358452	      5.45676180	      9.01022815
      1.07716667	     -4.22583286	     -2.76534715	     -3.07835753	     -0.18229732	      0.99358238	      0.30893896	      0.88201237	      8.08667100	     -1.05784746	     -8.27214583	      7.62416521	     -3.93463972	      4.93466304	     36.15241159	     -3.95168667	     -1.15957852	    -55.99343883	      3.48826443	     -7.41851656	     -0.00950234	      0.46649825	      5.43435267	      9.13630706
      1.08133333	     -4.23582069	     -2.74445080	     -3.18828940	     -0.17747901	      0.99316423	      0.30902306	      0.50221118	      8.04907216	     -0.91552536	     -8.11577719	      7.78648625	     -3.90676079	      4.95013707	     36.33418426	     -3.93422101	     -1.15568760	    -54.78480093	      3.59214688	     -7.23036262	     -0.00096653	      0.42161168	      5.40962743	      9.24208812
      1.08550000	     -4.26110843	     -2.72745693	     -3.28646479	     -0.17263958	      0.99268232	      0.30909348	      0.14087994	      8.01641170	     -0.78040453	     -7.96719228	      7.96149242	     -3.89240085	      4.96206922	     36.51353140	     -3.91618552	     -1.14484744	    -53.54199941	      3.68772010	     -7.05604772	      0.01011295	      0.39783679	      5.38832600	      9.33857724
